<?xml version="1.0"?>
<svg xmlns="http://www.w3.org/2000/svg" xmlns:xlink="http://www.w3.org/1999/xlink" version="1.1" id="Capa_1" x="0px" y="0px" width="512px" height="512px" viewBox="0 0 87.883 87.882" style="enable-background:new 0 0 87.883 87.882;" xml:space="preserve"><g><g>
	<path d="M8.817,61.71c0,13.476,10.962,24.438,24.438,24.438c13.475,0,24.437-10.963,24.437-24.438   c0-13.473-10.962-24.436-24.437-24.436C19.779,37.275,8.817,48.238,8.817,61.71z M24.396,41.441   c8.703-5.535,20.972-1.883,27.35,8.145c6.377,10.027,4.487,22.689-4.216,28.226c-8.702,5.535-20.972,1.883-27.35-8.146   C13.803,59.638,15.693,46.976,24.396,41.441z M0.247,40.195L22.252,2.711c0.352-0.602,1.031-0.977,1.771-0.977   c0.741,0,1.42,0.375,1.771,0.975l13.904,23.686c-0.666,0.385-1.305,0.846-1.861,1.377L26.834,8.363   c-0.428-0.727-1.252-1.127-2.089-1.008c-0.836,0.115-1.52,0.725-1.731,1.543l-8.137,32.949c-1.403,1.461-2.638,3.082-3.674,4.834   c-3.504-0.918-6.906-2.234-10.182-3.957c-0.475-0.25-0.814-0.658-0.954-1.148C-0.065,41.109,0,40.617,0.247,40.195z M60.157,61.269   c0,2.834-0.459,5.562-1.298,8.119l4.094,2.143c0.149,0.08,0.313,0.121,0.479,0.121h0.002c0.068,0.078,0.146,0.15,0.238,0.207   C63.832,71.953,64.01,72,64.189,72c0.165,0,0.33-0.037,0.479-0.119l22.686-12.303c0.326-0.176,0.529-0.518,0.529-0.887V28.759   c0-0.008-0.002-0.016-0.002-0.025c-0.002-0.006,0.002-0.014,0.002-0.021c-0.002-0.029-0.012-0.055-0.017-0.084   c-0.007-0.057-0.015-0.109-0.03-0.164c-0.012-0.037-0.028-0.068-0.043-0.105c-0.021-0.047-0.043-0.094-0.07-0.135   c-0.021-0.035-0.045-0.064-0.071-0.096c-0.03-0.039-0.063-0.076-0.103-0.111c-0.029-0.025-0.062-0.049-0.094-0.074   c-0.021-0.016-0.039-0.035-0.062-0.049c-0.021-0.012-0.047-0.018-0.07-0.031c-0.02-0.008-0.035-0.023-0.055-0.033L63.89,16.511   c-0.272-0.115-0.581-0.104-0.847,0.029L39.937,28.584c-0.339,0.172-0.554,0.518-0.555,0.896c0,0.006,0.002,0.012,0.002,0.018   c-0.042,0.111-0.072,0.23-0.071,0.354l0.027,5.842C51.209,38.15,60.157,48.683,60.157,61.269z M65.198,42.002l20.667-11.551v27.639   L65.198,69.3V42.002z M42.612,29.496l20.922-10.945l21.009,10.322L64.178,40.259L42.612,29.496z" data-original="#000000" class="active-path" data-old_color="#a5cd50" fill="#a5cd50"/>
</g></g> </svg>
